<svg width="24" height="31" viewBox="0 0 24 31" fill="none" xmlns="http://www.w3.org/2000/svg">
<path d="M23.9992 0L6.07785 4.16327V8.91099V24.5323C5.51857 24.3213 4.92345 24.226 4.32745 24.252C3.73145 24.278 3.14656 24.4248 2.60714 24.6838C0.612722 25.5857 -0.466108 27.57 0.193965 29.0708C0.854039 30.5716 3.03299 31.0911 5.01321 30.1964C5.64595 29.9431 6.2089 29.5377 6.65388 29.015C7.09887 28.4923 7.41264 27.8677 7.56833 27.1948V27.1298C7.60374 26.8906 7.60374 26.6474 7.56833 26.4083V8.54301L22.4732 4.93532V20.6432C21.9123 20.4235 21.3131 20.323 20.7125 20.3478C20.1119 20.3726 19.5227 20.5223 18.9812 20.7875C16.9797 21.6894 15.908 23.6737 16.5609 25.1672C17.2139 26.6608 19.4 27.1948 21.3802 26.3001C23.041 25.5785 24.0489 24.0633 23.9637 22.6924V4.56012L23.9992 0Z" fill="black"/>
</svg>
