<svg width="80" height="80" viewBox="0 0 80 80" fill="none" xmlns="http://www.w3.org/2000/svg">
<circle cx="40" cy="40" r="40" fill="white" fill-opacity="0.3"/>
<path d="M35.75 53.125C35.75 55.8172 33.5673 58 30.875 58C28.1828 58 26 55.8172 26 53.125V27.875C26 25.1828 28.1828 23 30.875 23C33.5673 23 35.75 25.1828 35.75 27.875V53.125Z" fill="white"/>
<path d="M54.0458 53.125C54.0458 55.8172 51.863 58 49.1708 58C46.4785 58 44.2958 55.8172 44.2958 53.125V27.875C44.2965 25.1828 46.4793 23 49.1708 23C51.863 23 54.0458 25.1828 54.0458 27.875V53.125Z" fill="white"/>
</svg>
