<svg width="11" height="19" viewBox="0 0 11 19" fill="none" xmlns="http://www.w3.org/2000/svg">
<path d="M9.97668 0.00395327L7.56558 0C4.85678 0 3.10624 1.8353 3.10624 4.67593V6.83184H0.68198C0.472495 6.83184 0.302856 7.00539 0.302856 7.21946V10.3431C0.302856 10.5572 0.472688 10.7306 0.68198 10.7306H3.10624V18.6126C3.10624 18.8267 3.27588 19 3.48536 19H6.64833C6.85782 19 7.02745 18.8265 7.02745 18.6126V10.7306H9.86198C10.0715 10.7306 10.2411 10.5572 10.2411 10.3431L10.2423 7.21946C10.2423 7.11667 10.2022 7.01824 10.1312 6.9455C10.0602 6.87276 9.96353 6.83184 9.86295 6.83184H7.02745V5.00424C7.02745 4.12583 7.2323 3.6799 8.35206 3.6799L9.9763 3.67931C10.1856 3.67931 10.3552 3.50576 10.3552 3.29189V0.391374C10.3552 0.177699 10.1858 0.0043486 9.97668 0.00395327Z" fill="white"/>
</svg>
