<svg width="21" height="21" viewBox="0 0 21 21" fill="none" xmlns="http://www.w3.org/2000/svg">
<path d="M3.63504 17.0882C4.55297 18.0061 5.62223 18.7269 6.81321 19.2307C8.04702 19.7525 9.35676 20.0171 10.7061 20.0171C12.0554 20.0171 13.3652 19.7525 14.599 19.2307C15.7899 18.7269 16.8592 18.0061 17.7772 17.0882C18.6951 16.1702 19.4159 15.101 19.9196 13.91C20.4415 12.6762 20.7061 11.3664 20.7061 10.0171C20.7061 8.66775 20.4415 7.358 19.9196 6.12421C19.4159 4.93323 18.695 3.86396 17.7772 2.94603C16.8592 2.0281 15.79 1.30727 14.599 0.80355C13.3651 0.281663 12.0554 0.0170898 10.7061 0.0170898C9.35676 0.0170898 8.04702 0.281697 6.81321 0.80355C5.62223 1.30727 4.55297 2.02814 3.63504 2.94603C2.71712 3.86393 1.99629 4.93323 1.49254 6.12418C0.970721 7.358 0.706116 8.66775 0.706116 10.0171C0.706116 11.3664 0.970721 12.6762 1.49257 13.91C1.99629 15.101 2.71715 16.1702 3.63504 17.0882ZM10.7061 1.47694C15.4227 1.47694 19.2462 5.30051 19.2462 10.0171C19.2462 14.7337 15.4227 18.5572 10.7061 18.5572C5.98951 18.5572 2.16596 14.7337 2.16596 10.0171C2.16596 5.30051 5.98951 1.47694 10.7061 1.47694Z" fill="white"/>
<path d="M8.49265 13.6578C8.62953 13.7948 8.81518 13.8716 9.00877 13.8716C9.2024 13.8716 9.38801 13.7947 9.5249 13.6578L15.7741 7.40866C16.0591 7.1236 16.0591 6.66145 15.7741 6.3764C15.489 6.09135 15.0269 6.09131 14.7418 6.3764L9.00877 12.1095L6.67091 9.77158C6.38585 9.4865 5.92371 9.4865 5.63865 9.77158C5.3536 10.0566 5.3536 10.5188 5.63865 10.8038L8.49265 13.6578Z" fill="white"/>
</svg>
