<?xml version="1.0" encoding="utf-8"?>
<!-- Generator: Adobe Illustrator 24.1.0, SVG Export Plug-In . SVG Version: 6.00 Build 0)  -->
<svg version="1.1" id="Слой_1" xmlns="http://www.w3.org/2000/svg" xmlns:xlink="http://www.w3.org/1999/xlink" x="0px" y="0px"
	 viewBox="0 0 900 900" style="enable-background:new 0 0 900 900;" xml:space="preserve">
<style type="text/css">
	.st0{clip-path:url(#SVGID_2_);fill:#E3051D;}
	.st1{clip-path:url(#SVGID_4_);fill:#E3051D;}
	.st2{clip-path:url(#SVGID_6_);fill:#E3051D;}
	.st3{clip-path:url(#SVGID_8_);fill:#E3051D;}
	.st4{clip-path:url(#SVGID_10_);fill:#E3051D;}
	.st5{clip-path:url(#SVGID_12_);fill:#E3051D;}
	.st6{clip-path:url(#SVGID_14_);fill:#E3051D;}
	.st7{clip-path:url(#SVGID_16_);fill:#E3051D;}
</style>
<g>
	<polygon points="275.11,633.54 240.33,633.54 240.33,602.91 224.92,602.91 224.92,678.83 240.33,678.83 240.33,648 275.11,648 
		275.11,678.83 290.51,678.83 290.51,602.91 275.11,602.91 	"/>
	<path d="M361.88,646.37c0,12.35-6.13,18.94-17.26,18.94c-11.19,0-17.36-6.78-17.36-19.46v-42.88h-15.4v43.41
		c0,21.36,11.87,33.6,32.55,33.6c20.89,0,32.86-12.48,32.86-34.23v-42.83h-15.4V646.37z"/>
	<polygon points="539.9,655.12 522.67,602.9 510.1,602.9 492.86,655.12 476.09,602.95 459.7,602.95 486.15,678.83 498.91,678.83 
		516.17,628.98 533.43,678.83 546.29,678.83 572.68,602.95 556.71,602.95 	"/>
	<polygon points="600.3,646.16 628.32,646.16 628.32,632.33 600.3,632.33 600.3,616.79 640.97,616.79 640.97,602.97 585.11,602.97 
		585.11,678.78 642.43,678.78 642.43,664.96 600.3,664.96 	"/>
	<rect x="660.8" y="602.91" width="15.2" height="75.82"/>
	<path d="M442.47,662.99l6.82,15.8h16.14l-33.13-75.44l-0.3-0.44h-13.47l-33.45,75.87h15.72l6.45-14.69l0.46-1.11H442.47z
		 M425.06,622.12l10.98,25.41h-0.04l0.74,1.76h-23.29l0.74-1.76h-0.02L425.06,622.12z"/>
	<g>
		<defs>
			<path id="SVGID_1_" d="M256.66,354.11c1.5,28.3,22.89,45.06,22.89,45.06C314,432.6,397.4,474.82,416.78,484.4
				c0.27,0.1,1.27,0.42,1.86-0.32c0,0,0.81-0.63,0.38-1.68h0.01c-53.07-115.48-125.68-203.03-125.68-203.03
				S253.85,316.71,256.66,354.11"/>
		</defs>
		<use xlink:href="#SVGID_1_"  style="overflow:visible;fill:#E3051D;"/>
		<clipPath id="SVGID_2_">
			<use xlink:href="#SVGID_1_"  style="overflow:visible;"/>
		</clipPath>
		<rect x="253.85" y="279.37" class="st0" width="165.6" height="205.45"/>
	</g>
	<g>
		<defs>
			<path id="SVGID_3_" d="M265.11,516.21c15.06,26.74,40.42,47.51,66.84,41.13c18.24-4.53,59.52-33.22,73.15-42.92l-0.04-0.03
				c1.05-0.95,0.68-1.72,0.68-1.72c-0.34-1.24-1.78-1.24-1.78-1.24v-0.04L265.11,516.21z"/>
		</defs>
		<use xlink:href="#SVGID_3_"  style="overflow:visible;fill:#E3051D;"/>
		<clipPath id="SVGID_4_">
			<use xlink:href="#SVGID_3_"  style="overflow:visible;"/>
		</clipPath>
		<rect x="265.11" y="511.39" class="st1" width="141" height="52.33"/>
	</g>
	<g>
		<defs>
			<path id="SVGID_5_" d="M231.89,454.13c15.05,31.71,43.82,41.31,43.82,41.31c13.28,5.43,26.56,5.8,26.56,5.8
				c2.08,0.39,82.57,0.04,104.14-0.06c0.91-0.02,1.43-0.93,1.43-0.93c0.67-1.09-0.52-2.06-0.52-2.06l0.01-0.02
				C346.34,457.21,228.15,394.3,228.15,394.3C217.41,427.44,231.89,454.13,231.89,454.13"/>
		</defs>
		<use xlink:href="#SVGID_5_"  style="overflow:visible;fill:#E3051D;"/>
		<clipPath id="SVGID_6_">
			<use xlink:href="#SVGID_5_"  style="overflow:visible;"/>
		</clipPath>
		<rect x="217.41" y="394.3" class="st2" width="191.1" height="107.33"/>
	</g>
	<g>
		<defs>
			<path id="SVGID_7_" d="M394.7,223.88c-36.76,9.46-45.44,42.68-45.44,42.68c-6.71,20.91,0.17,43.86,0.17,43.86
				c12.27,54.23,72.65,143.33,85.62,162.04c0.92,0.92,1.65,0.58,1.65,0.58c1.4-0.39,1.29-1.73,1.29-1.73l0.02,0.01
				c19.98-198.94-20.96-251.68-20.96-251.68C411.01,220.18,394.7,223.88,394.7,223.88"/>
		</defs>
		<use xlink:href="#SVGID_7_"  style="overflow:visible;fill:#E3051D;"/>
		<clipPath id="SVGID_8_">
			<use xlink:href="#SVGID_7_"  style="overflow:visible;"/>
		</clipPath>
		<rect x="342.55" y="219.65" class="st3" width="115.45" height="253.73"/>
	</g>
	<g>
		<defs>
			<path id="SVGID_9_" d="M461.94,471.47h0.02c0.15,1.25,1.06,1.52,1.06,1.52c1.34,0.52,2.02-0.77,2.02-0.77l0.01,0.01
				c13.32-19.19,73.35-107.8,85.56-161.82c0,0,6.62-26.15,0.23-43.86c0,0-9.08-33.74-45.89-42.66c0,0-10.61-2.67-21.86-4.26
				C483.09,219.65,441.94,272.41,461.94,471.47"/>
		</defs>
		<use xlink:href="#SVGID_9_"  style="overflow:visible;fill:#E3051D;"/>
		<clipPath id="SVGID_10_">
			<use xlink:href="#SVGID_9_"  style="overflow:visible;"/>
		</clipPath>
		<rect x="441.94" y="219.65" class="st4" width="115.29" height="253.86"/>
	</g>
	<g>
		<defs>
			<path id="SVGID_11_" d="M495.89,511.51c0,0-1.22,0.16-1.56,1.07c0,0-0.29,1.24,0.54,1.86l-0.02,0.01
				c13.29,9.49,53.58,37.55,73.01,43c0,0,35.89,12.18,67.06-41.16l-139.01-4.82L495.89,511.51z"/>
		</defs>
		<use xlink:href="#SVGID_11_"  style="overflow:visible;fill:#E3051D;"/>
		<clipPath id="SVGID_12_">
			<use xlink:href="#SVGID_11_"  style="overflow:visible;"/>
		</clipPath>
		<rect x="494.04" y="511.47" class="st5" width="140.87" height="58.17"/>
	</g>
	<g>
		<defs>
			<path id="SVGID_13_" d="M492.83,498.09l0.02,0.02c0,0-1.1,0.72-0.72,2.02c0,0,0.57,1.04,1.43,1.04v0.01
				c21.84,0.03,104.55,0.13,106.64-0.25c0,0,10.69-0.42,23.9-5.48c0,0,29.41-9.31,44.69-42.58c0,0,13.62-27.14,3.08-58.84
				C671.86,394.02,553.85,457.1,492.83,498.09"/>
		</defs>
		<use xlink:href="#SVGID_13_"  style="overflow:visible;fill:#E3051D;"/>
		<clipPath id="SVGID_14_">
			<use xlink:href="#SVGID_13_"  style="overflow:visible;"/>
		</clipPath>
		<rect x="491.74" y="394.02" class="st6" width="190.67" height="107.28"/>
	</g>
	<g>
		<defs>
			<path id="SVGID_15_" d="M481.26,481.88l0.03-0.01c0,0-0.62,1.34,0.38,2.21c0,0,0.96,0.71,1.87,0.13v0.01
				c19.89-9.83,102.66-51.77,136.94-85.04c0,0,21.7-17.37,22.85-45.24c2.5-38.73-36.63-74.56-36.63-74.56
				S534.31,366.64,481.26,481.88"/>
		</defs>
		<use xlink:href="#SVGID_15_"  style="overflow:visible;fill:#E3051D;"/>
		<clipPath id="SVGID_16_">
			<use xlink:href="#SVGID_15_"  style="overflow:visible;"/>
		</clipPath>
		<rect x="480.67" y="279.37" class="st7" width="165.17" height="205.42"/>
	</g>
</g>
</svg>
