<svg width="32" height="32" viewBox="0 0 32 32" fill="none" xmlns="http://www.w3.org/2000/svg">
<circle cx="16" cy="16" r="16" fill="white"/>
<path d="M22.7524 21.1671C22.9175 21.3491 23 21.5571 23 21.7911C23 21.9991 22.94 22.2006 22.8199 22.3955C22.6999 22.5775 22.5423 22.7205 22.3473 22.8245C22.1072 22.9415 21.8746 23 21.6495 23C21.2744 23 20.8917 22.805 20.5016 22.415L16 17.7354L11.4984 22.415C11.1233 22.805 10.7406 23 10.3505 23C10.1404 23 9.90782 22.9415 9.65273 22.8245C9.45766 22.7205 9.30011 22.5775 9.18006 22.3955C9.06002 22.2006 9 21.9991 9 21.7911C9 21.5571 9.08253 21.3491 9.24759 21.1671L14.2444 15.922L9.51768 11.0084C9.2776 10.7614 9.15756 10.4819 9.15756 10.1699C9.15756 9.97493 9.21007 9.79294 9.31511 9.62396C9.42015 9.44197 9.5627 9.30548 9.74277 9.21449C10.0279 9.0715 10.2905 9 10.5305 9C10.9357 9 11.3183 9.18849 11.6785 9.56546L16 14.0891L20.3215 9.56546C20.6817 9.18849 21.0643 9 21.4695 9C21.7395 9 22.0021 9.0715 22.2572 9.21449C22.4373 9.30548 22.5798 9.44197 22.6849 9.62396C22.7899 9.79294 22.8424 9.97493 22.8424 10.1699C22.8424 10.4819 22.7224 10.7614 22.4823 11.0084L17.7556 15.922L22.7524 21.1671Z" fill="black"/>
<path d="M22.7524 21.1671C22.9175 21.3491 23 21.5571 23 21.7911C23 21.9991 22.94 22.2006 22.8199 22.3955C22.6999 22.5775 22.5423 22.7205 22.3473 22.8245C22.1072 22.9415 21.8746 23 21.6495 23C21.2744 23 20.8917 22.805 20.5016 22.415L16 17.7354L11.4984 22.415C11.1233 22.805 10.7406 23 10.3505 23C10.1404 23 9.90782 22.9415 9.65273 22.8245C9.45766 22.7205 9.30011 22.5775 9.18006 22.3955C9.06002 22.2006 9 21.9991 9 21.7911C9 21.5571 9.08253 21.3491 9.24759 21.1671L14.2444 15.922L9.51768 11.0084C9.2776 10.7614 9.15756 10.4819 9.15756 10.1699C9.15756 9.97493 9.21007 9.79294 9.31511 9.62396C9.42015 9.44197 9.5627 9.30548 9.74277 9.21449C10.0279 9.0715 10.2905 9 10.5305 9C10.9357 9 11.3183 9.18849 11.6785 9.56546L16 14.0891L20.3215 9.56546C20.6817 9.18849 21.0643 9 21.4695 9C21.7395 9 22.0021 9.0715 22.2572 9.21449C22.4373 9.30548 22.5798 9.44197 22.6849 9.62396C22.7899 9.79294 22.8424 9.97493 22.8424 10.1699C22.8424 10.4819 22.7224 10.7614 22.4823 11.0084L17.7556 15.922L22.7524 21.1671Z" fill="#E30000"/>
</svg>
